HIERARCHY
ROOT Hips
{
 OFFSET 0.000000 0.000000 0.000000
 CHANNELS 6 Xposition Yposition Zposition Yrotation Xrotation Zrotation
 JOINT Chest
 {
  OFFSET 0.000000 9.585900 0.002600
  CHANNELS 3 Yrotation Xrotation Zrotation
  JOINT Chest2
  {
   OFFSET 0.000000 9.601200 -0.005300
   CHANNELS 3 Yrotation Xrotation Zrotation
   JOINT Chest3
   {
    OFFSET 0.000000 9.561800 0.000000
    CHANNELS 3 Yrotation Xrotation Zrotation
    JOINT Chest4
    {
     OFFSET 0.000000 9.552100 0.000000
     CHANNELS 3 Yrotation Xrotation Zrotation
     JOINT Neck
     {
      OFFSET 0.000000 14.453000 0.000000
      CHANNELS 3 Yrotation Xrotation Zrotation
      JOINT Head
      {
       OFFSET 0.000000 8.936500 -0.011300
       CHANNELS 3 Yrotation Xrotation Zrotation
       End Site
       {
        OFFSET 0.000000 17.073600 -0.006000
       }
      }
     }
     JOINT RightCollar
     {
      OFFSET -2.921100 9.558500 0.000000
      CHANNELS 3 Yrotation Xrotation Zrotation
      JOINT RightShoulder
      {
       OFFSET -13.519700 0.000000 0.000000
       CHANNELS 3 Yrotation Xrotation Zrotation
       JOINT RightElbow
       {
        OFFSET 0.000000 -29.696600 0.000000
        CHANNELS 3 Yrotation Xrotation Zrotation
        JOINT RightWrist
        {
         OFFSET 0.000000 -24.004700 0.000000
         CHANNELS 3 Yrotation Xrotation Zrotation
         End Site
         {
          OFFSET 0.000000 -17.728500 0.000000
         }
        }
       }
      }
     }
     JOINT LeftCollar
     {
      OFFSET 2.921100 9.558500 0.000000
      CHANNELS 3 Yrotation Xrotation Zrotation
      JOINT LeftShoulder
      {
       OFFSET 13.519700 0.000000 0.000000
       CHANNELS 3 Yrotation Xrotation Zrotation
       JOINT LeftElbow
       {
        OFFSET 0.000000 -29.696600 0.000000
        CHANNELS 3 Yrotation Xrotation Zrotation
        JOINT LeftWrist
        {
         OFFSET 0.000000 -24.004700 0.000000
         CHANNELS 3 Yrotation Xrotation Zrotation
         End Site
         {
          OFFSET 0.000000 -17.728500 0.000000
         }
        }
       }
      }
     }
    }
   }
  }
 }
 JOINT RightHip
 {
  OFFSET -7.771700 -0.012900 -0.001300
  CHANNELS 3 Yrotation Xrotation Zrotation
  JOINT RightKnee
  {
   OFFSET 0.000000 -40.869800 0.001200
   CHANNELS 3 Yrotation Xrotation Zrotation
   JOINT RightAnkle
   {
    OFFSET 0.000000 -39.717900 0.002100
    CHANNELS 3 Yrotation Xrotation Zrotation
    JOINT RightToe
    {
     OFFSET 0.000000 -4.965400 11.033500
     CHANNELS 3 Yrotation Xrotation Zrotation
     End Site
     {
      OFFSET 0.000000 -1.423100 5.872300
     }
    }
   }
  }
 }
 JOINT LeftHip
 {
  OFFSET 7.771700 -0.012900 -0.001300
  CHANNELS 3 Yrotation Xrotation Zrotation
  JOINT LeftKnee
  {
   OFFSET 0.000000 -40.869800 0.001200
   CHANNELS 3 Yrotation Xrotation Zrotation
   JOINT LeftAnkle
   {
    OFFSET 0.000000 -39.717900 0.002100
    CHANNELS 3 Yrotation Xrotation Zrotation
    JOINT LeftToe
    {
     OFFSET 0.000000 -4.965400 11.033500
     CHANNELS 3 Yrotation Xrotation Zrotation
     End Site
     {
      OFFSET 0.000000 -1.423100 5.872300
     }
    }
   }
  }
 }
}
MOTION
Frames: 16
Frame Time: 0.008333
0.000000 85.388000 0.000000 0.000000 -5.767877 0.000000 0.000000 11.653817 0.000000 0.000000 -5.885947 0.000000 0.000000 -0.000000 0.000000 0.000000 -0.000000 0.000000 0.000000 12.528835 0.000000 0.000000 0.711642 0.000000 0.000000 -0.000000 0.000000 0.000000 0.000000 -90.000000 0.000000 -2.309062 0.000000 0.000000 2.309062 0.000000 0.000000 -0.000000 0.000000 0.000000 -0.000000 90.000000 0.000000 -2.309062 0.000000 0.000000 2.309062 0.000000 0.000000 8.520406 0.000000 0.000000 1.905762 0.000000 -0.000000 -4.658285 0.000000 0.000000 -0.000000 0.000000 0.000000 8.520406 0.000000 0.000000 1.905762 0.000000 -0.000000 -4.658285 0.000000 0.000000 -0.000000 0.000000
-244.779143 56.736749 148.283915 176.501169 -54.055736 -2.396788 0.800031 28.272180 2.898996 -0.077486 5.100593 0.543418 -0.100354 8.029275 0.854558 0.039444 22.765305 2.479567 -0.896050 14.076374 -2.346270 -0.778131 -9.648078 -4.069106 8.915263 -1.560846 -4.480918 17.329429 -29.308020 -17.683190 163.275317 -43.025591 -149.566038 19.386729 -16.210054 -53.735979 -9.602841 -5.732338 -2.105524 -1.093023 -23.970572 -2.943133 -165.782641 -43.054051 156.478684 -19.025068 -17.417139 30.476051 9.993059 -22.248096 -1.364664 -9.957690 60.593213 -9.363278 1.476891 34.474623 -0.200585 -1.592208 -18.059230 10.260926 -9.469042 -20.278638 1.033794 30.880615 63.174229 29.393570 -11.353485 12.382378 -6.724562 0.094338 0.766292 0.289140
-244.783317 56.730629 148.271180 176.505025 -53.900996 -2.423054 0.872262 28.242636 2.942489 -0.069661 5.085311 0.547252 -0.087908 8.006696 0.861146 0.078636 22.738251 2.507791 -0.954892 13.996758 -2.322983 -0.820480 -9.829364 -4.045142 8.555260 -1.544848 -4.459210 17.115254 -29.031227 -17.658500 163.180640 -43.158902 -149.412288 19.400132 -16.246138 -53.819304 -9.647375 -5.650393 -2.066465 -0.830321 -23.726175 -2.780589 -164.956586 -42.656121 155.988213 -19.078243 -17.545623 30.488059 10.018882 -22.417122 -1.372366 -10.003440 60.618815 -9.401583 1.488637 34.463115 -0.183878 -1.575567 -17.989144 10.262425 -9.384986 -20.418962 1.084459 30.781238 63.202335 29.362074 -11.377291 12.291153 -6.788642 0.123140 0.794391 0.303607
-244.794039 56.723743 148.255421 176.462547 -53.720564 -2.381250 0.953889 28.187653 2.950818 -0.061549 5.068476 0.551617 -0.075018 7.981898 0.868586 0.119678 22.708389 2.539184 -1.016920 13.922726 -2.303884 -0.864934 -10.004186 -4.023945 8.187315 -1.527474 -4.440954 16.897831 -28.754698 -17.630908 163.084392 -43.288541 -149.259761 19.419173 -16.285233 -53.919732 -9.700598 -5.557742 -2.036141 -0.535184 -23.478707 -2.617317 -164.191571 -42.281886 155.536188 -19.121090 -17.652033 30.507636 10.080339 -22.607935 -1.416771 -10.044143 60.646370 -9.439468 1.478776 34.487430 -0.179982 -1.557918 -18.009658 10.270663 -9.259360 -20.590388 1.098765 30.637829 63.218417 29.308121 -11.433391 12.186040 -6.896962 0.198265 0.844521 0.334653
-244.808971 56.722595 148.232696 176.501188 -53.562379 -2.384334 0.975069 28.156920 2.936454 -0.053750 5.049842 0.556104 -0.062524 7.954494 0.876168 0.159655 22.675292 2.571511 -1.051935 13.846084 -2.297413 -0.937541 -10.162093 -3.992525 7.817688 -1.503503 -4.426696 16.685702 -28.479969 -17.598909 162.967923 -43.410443 -149.100132 19.441551 -16.326290 -54.018951 -9.755620 -5.449930 -2.013404 -0.209904 -23.229169 -2.455026 -163.472570 -41.923637 155.112513 -19.157381 -17.740968 30.528636 10.097421 -22.772839 -1.470833 -10.031451 60.715397 -9.470956 1.507157 34.410567 -0.089433 -1.576096 -17.966004 10.258219 -9.191839 -20.743209 1.088572 30.586371 63.249523 29.304323 -11.447313 12.097918 -6.948478 0.209994 0.865470 0.354679
-244.817731 56.721540 148.208888 176.516858 -53.388848 -2.409870 1.025367 28.107406 2.966364 -0.072021 4.977939 0.563588 -0.056460 7.940128 0.879882 0.222755 22.677560 2.595397 -1.081392 13.771725 -2.291823 -1.007785 -10.309856 -3.967587 7.452810 -1.471915 -4.414834 16.479563 -28.208676 -17.560593 162.821453 -43.522924 -148.928891 19.465699 -16.366566 -54.104930 -9.804823 -5.326355 -1.993056 0.140770 -22.975054 -2.300188 -162.781350 -41.562951 154.711982 -19.183915 -17.813231 30.536195 10.111150 -22.957245 -1.491502 -10.040230 60.759727 -9.494235 1.527023 34.384757 -0.048665 -1.561994 -17.894261 10.253387 -9.131354 -20.904937 1.128072 30.515087 63.295656 29.282526 -11.446297 11.996988 -7.000305 0.215337 0.887749 0.369900
-244.821631 56.726540 148.179778 176.471055 -53.249141 -2.415338 1.122357 28.086346 3.026854 -0.088511 4.909010 0.568688 -0.049663 7.925388 0.883741 0.240969 22.657395 2.611251 -1.045684 13.692522 -2.306117 -1.100229 -10.423506 -3.932726 7.136382 -1.415762 -4.409051 16.267437 -27.941368 -17.513196 162.649197 -43.627394 -148.743211 19.492996 -16.403864 -54.177016 -9.810267 -5.172703 -1.986541 0.515383 -22.713760 -2.157200 -162.105113 -41.192071 154.333920 -19.194219 -17.878651 30.520085 10.145371 -23.112112 -1.477285 -10.045176 60.797328 -9.506715 1.544655 34.373289 -0.014280 -1.560191 -17.870149 10.249651 -9.089777 -21.035638 1.200934 30.580318 63.374800 29.336519 -11.396966 11.856771 -6.951985 0.161717 0.913848 0.314678
-244.830599 56.727607 148.151924 176.481999 -53.070425 -2.436755 1.161417 28.027517 3.051304 -0.042806 4.962342 0.569973 -0.034365 7.870306 0.894299 0.198372 22.552448 2.636066 -1.034784 13.625867 -2.311545 -1.160903 -10.548114 -3.919919 6.831458 -1.356965 -4.403574 16.041821 -27.681512 -17.452072 162.449957 -43.724478 -148.538002 19.525023 -16.436584 -54.236784 -9.814019 -5.013758 -1.983823 0.921962 -22.443488 -2.030316 -161.450828 -40.813430 153.979167 -19.190892 -17.948724 30.485181 10.161657 -23.301572 -1.500698 -10.044524 60.846240 -9.519030 1.551919 34.350512 0.017098 -1.553687 -17.841566 10.251204 -9.076358 -21.207189 1.246368 30.589758 63.419661 29.354575 -11.400585 11.781593 -6.960809 0.161910 0.923693 0.317606
-244.840207 56.728251 148.123309 176.486051 -52.881924 -2.447461 1.197611 27.959810 3.068276 -0.028779 4.964801 0.571518 -0.022830 7.829145 0.902417 0.220447 22.495539 2.669168 -1.063408 13.554605 -2.317274 -1.208318 -10.681156 -3.918044 6.508446 -1.307569 -4.403705 15.804518 -27.431462 -17.376011 162.217562 -43.813025 -148.313047 19.556098 -16.464010 -54.284814 -9.846353 -4.867711 -1.984526 1.372477 -22.163712 -1.924416 -160.832542 -40.430516 153.653362 -19.184608 -18.029752 30.441514 10.198806 -23.510241 -1.532041 -10.065275 60.913995 -9.548010 1.556167 34.323228 0.051833 -1.549236 -17.827517 10.255531 -9.014899 -21.384530 1.286022 30.532938 63.468116 29.337353 -11.411790 11.689797 -7.009603 0.182753 0.925072 0.316398
-244.846372 56.730897 148.092588 176.487084 -52.702834 -2.473722 1.241870 27.900461 3.103419 -0.023120 4.941965 0.574916 -0.013823 7.795427 0.908270 0.252442 22.458494 2.697006 -1.090596 13.480373 -2.322548 -1.252473 -10.812401 -3.920192 6.198480 -1.258661 -4.401406 15.555951 -27.189010 -17.285037 161.952482 -43.893116 -148.069276 19.582490 -16.488375 -54.324947 -9.880073 -4.722085 -1.988494 1.872666 -21.878343 -1.834090 -160.251858 -40.048297 153.361682 -19.178402 -18.124004 30.400230 10.211571 -23.703978 -1.542008 -10.077029 60.967961 -9.570302 1.571694 34.296596 0.082398 -1.558412 -17.830527 10.259136 -8.880131 -21.548906 1.330169 30.374212 63.524623 29.279891 -11.442641 11.605490 -7.035779 0.223762 0.923636 0.306891
-244.854117 56.733763 148.060566 176.486229 -52.522294 -2.486424 1.276329 27.837166 3.122559 -0.017857 4.918479 0.577905 -0.005394 7.760735 0.913532 0.289533 22.423650 2.725630 -1.135690 13.428650 -2.322254 -1.275753 -10.966703 -3.936663 5.898100 -1.207051 -4.398834 15.293638 -26.953672 -17.178342 161.662387 -43.963986 -147.808992 19.603328 -16.515667 -54.360152 -9.922754 -4.575828 -2.004584 2.425494 -21.590518 -1.746344 -159.707037 -39.671118 153.107226 -19.166978 -18.231061 30.372418 10.231582 -23.897515 -1.567413 -10.099142 61.023175 -9.597980 1.582224 34.271587 0.101336 -1.547559 -17.804415 10.262392 -8.804703 -21.724686 1.364972 30.315563 63.579992 29.266118 -11.438865 11.554284 -7.007393 0.222093 0.916488 0.298738
-244.860573 56.738239 148.026564 176.482146 -52.351560 -2.501327 1.313091 27.781235 3.143597 -0.012814 4.894243 0.580462 -0.013639 7.697293 0.922733 0.386535 22.426152 2.759008 -1.219504 13.368112 -2.314587 -1.293260 -11.121232 -3.953692 5.567178 -1.159325 -4.392412 15.013470 -26.728690 -17.053298 161.361105 -44.021996 -147.541837 19.618795 -16.551076 -54.391780 -10.016216 -4.438452 -2.021287 3.038511 -21.301935 -1.656892 -159.198809 -39.299909 152.897052 -19.149790 -18.349016 30.360865 10.241727 -24.076972 -1.583620 -10.123350 61.072079 -9.630957 1.596790 34.240653 0.118174 -1.523106 -17.728280 10.259543 -8.717489 -21.898750 1.402132 30.242259 63.646571 29.241116 -11.437222 11.548270 -6.916302 0.220840 0.867144 0.237436
-244.863812 56.740613 147.993793 176.466478 -52.163374 -2.524610 1.363501 27.706771 3.179261 -0.007606 4.869465 0.582526 -0.022863 7.633800 0.934021 0.414318 22.406396 2.769960 -1.223809 13.306415 -2.317986 -1.321142 -11.244242 -3.958611 5.311080 -1.078888 -4.392049 14.713696 -26.516328 -16.906909 161.053376 -44.063952 -147.273467 19.635819 -16.589451 -54.421813 -10.050063 -4.274903 -2.046860 3.717902 -21.017207 -1.575972 -158.724257 -38.933082 152.732213 -19.131494 -18.473756 30.371424 10.250999 -24.275191 -1.586652 -10.144159 61.106403 -9.652692 1.603440 34.233587 0.125781 -1.513116 -17.705267 10.260263 -8.598888 -22.093300 1.459774 30.114961 63.726583 29.183594 -11.436182 11.553221 -6.799437 0.224947 0.810576 0.151909
-244.868234 56.741898 147.961096 176.446082 -51.966767 -2.535234 1.408965 27.623398 3.202079 -0.002574 4.844707 0.583985 -0.006828 7.597341 0.939958 0.397801 22.353758 2.786984 -1.207704 13.248932 -2.333850 -1.345015 -11.352162 -3.953948 5.086417 -0.989317 -4.399941 14.394842 -26.314510 -16.740513 160.740979 -44.089084 -147.006252 19.654771 -16.624300 -54.450527 -10.056569 -4.102144 -2.074041 4.454543 -20.737102 -1.516223 -158.272918 -38.572517 152.604137 -19.114627 -18.600437 30.415954 10.270459 -24.488424 -1.602594 -10.173382 61.149276 -9.680978 1.610531 34.242566 0.126998 -1.508681 -17.697913 10.269553 -8.499617 -22.298085 1.516153 30.008691 63.807888 29.122261 -11.425714 11.560683 -6.670272 0.219150 0.764618 0.074550
-244.877687 56.746481 147.924672 176.459293 -51.795500 -2.539228 1.412842 27.566287 3.185687 0.001874 4.820452 0.584790 0.001919 7.561839 0.940446 0.431152 22.309345 2.810298 -1.201996 13.147110 -2.352750 -1.387949 -11.404744 -3.925579 4.834447 -0.913419 -4.397568 14.052744 -26.120389 -16.556196 160.436872 -44.100358 -146.749221 19.672254 -16.656283 -54.479081 -10.086611 -3.936795 -2.083101 5.232766 -20.456205 -1.483278 -157.838505 -38.221661 152.506201 -19.096507 -18.720714 30.496708 10.278182 -24.673574 -1.647449 -10.256072 61.227244 -9.771881 1.653846 34.174393 0.157746 -1.509734 -17.660572 10.265494 -8.405050 -22.482354 1.533418 29.904880 63.890866 29.062070 -11.435271 11.574887 -6.537908 0.240762 0.718957 0.006228
-244.885949 56.749220 147.889406 176.438760 -51.611536 -2.522918 1.434473 27.495029 3.171487 0.005870 4.796494 0.584890 0.029658 7.566104 0.932257 0.464130 22.236082 2.832945 -1.229243 13.089375 -2.336367 -1.395704 -11.492614 -3.917565 4.584361 -0.852735 -4.379918 13.682872 -25.933996 -16.354810 160.154771 -44.104028 -146.510870 19.693197 -16.686138 -54.513405 -10.113671 -3.783745 -2.072136 6.049919 -20.170988 -1.479394 -157.437135 -37.891483 152.435300 -19.073938 -18.823860 30.612758 10.291930 -24.884446 -1.688481 -10.317316 61.302927 -9.842783 1.673771 34.163692 0.165976 -1.500772 -17.652681 10.264946 -8.297127 -22.678540 1.560031 29.821289 63.971723 29.018138 -11.452495 11.585760 -6.396562 0.251311 0.723023 -0.018731
